<?xml version="1.0" encoding="utf-8"?>
<!-- Generator: Adobe Illustrator 15.1.0, SVG Export Plug-In . SVG Version: 6.00 Build 0)  -->
<!DOCTYPE svg PUBLIC "-//W3C//DTD SVG 1.1//EN" "http://www.w3.org/Graphics/SVG/1.1/DTD/svg11.dtd">
<svg version="1.1" id="Layer_2" xmlns="http://www.w3.org/2000/svg" xmlns:xlink="http://www.w3.org/1999/xlink" x="0px" y="0px"
	 width="800px" height="354.186px" viewBox="0 0 800 354.186" enable-background="new 0 0 800 354.186" xml:space="preserve">
<circle fill="none" stroke="#000000" stroke-width="2" stroke-miterlimit="10" cx="579.219" cy="177.413" r="86.775"/>
<circle fill="none" stroke="#000000" stroke-width="2" stroke-miterlimit="10" cx="578.667" cy="176.86" r="148.124"/>
<ellipse fill="none" stroke="#000000" stroke-width="2" stroke-miterlimit="10" cx="207.803" cy="177.413" rx="77.378" ry="86.222"/>
<ellipse fill="none" stroke="#000000" stroke-width="2" stroke-miterlimit="10" cx="205.592" cy="176.462" rx="133.754" ry="146.578"/>
<circle cx="206.145" cy="90.086" r="4.974"/>
<circle cx="207.25" cy="263.635" r="4.974"/>
<circle cx="334.925" cy="135.407" r="4.974"/>
<circle cx="538.319" cy="33.71" r="4.974"/>
<circle cx="620.12" cy="34.263" r="4.974"/>
<circle cx="580.325" cy="91.191" r="4.974"/>
<circle cx="580.325" cy="263.635" r="4.974"/>
<circle cx="721.264" cy="134.855" r="4.974"/>
<circle cx="717.949" cy="227.156" r="4.974"/>
<circle cx="622.883" cy="318.904" r="4.974"/>
<circle cx="513.448" cy="308.956" r="4.974"/>
<circle cx="443.254" cy="237.657" r="4.974"/>
<g>
	<g>
		<path fill="none" stroke="#E23D26" stroke-width="2" stroke-miterlimit="10" d="M339.899,129.88c0,0,12.711-32.057,18.792-33.163
			c6.08-1.105,11.607,31.504,18.792,30.952c7.185-0.553,29.846-41.453,39.242-41.453c4.64,0,10.491,5.524,15.228,11.118"/>
		<g>
			<polygon fill="#E23D26" points="422.144,101.135 440.535,108.845 438.017,89.062 			"/>
		</g>
	</g>
</g>
<g>
	<circle fill="#4064AF" stroke="#4795D1" stroke-width="2" stroke-miterlimit="10" cx="213.797" cy="189.035" r="9.982"/>
	<circle fill="#E23D26" stroke="#A32326" stroke-width="2" stroke-miterlimit="10" cx="224.729" cy="175.25" r="9.982"/>
	<circle fill="#E23D26" stroke="#A32326" stroke-width="2" stroke-miterlimit="10" cx="209.361" cy="184.44" r="9.982"/>
	<circle fill="#E23D26" stroke="#A32326" stroke-width="2" stroke-miterlimit="10" cx="210.153" cy="172.716" r="9.982"/>
	<circle fill="#4064AF" stroke="#4795D1" stroke-width="2" stroke-miterlimit="10" cx="221.244" cy="183.648" r="9.982"/>
	<circle fill="#4064AF" stroke="#4795D1" stroke-width="2" stroke-miterlimit="10" cx="220.135" cy="172.398" r="9.982"/>
</g>
<g>
	
		<ellipse fill="#4064AF" stroke="#4795D1" stroke-width="2" stroke-miterlimit="10" cx="574.172" cy="157.425" rx="9.507" ry="8.398"/>
	<circle fill="#4064AF" stroke="#4795D1" stroke-width="2" stroke-miterlimit="10" cx="580.985" cy="196.877" r="9.982"/>
	
		<ellipse fill="#4064AF" stroke="#4795D1" stroke-width="2" stroke-miterlimit="10" cx="590.095" cy="161.544" rx="10.061" ry="8.873"/>
	<circle fill="#E23D26" stroke="#A32326" stroke-width="2" stroke-miterlimit="10" cx="563.794" cy="165.109" r="9.982"/>
	<circle fill="#E23D26" stroke="#A32326" stroke-width="2" stroke-miterlimit="10" cx="598.493" cy="170.655" r="9.981"/>
	
		<ellipse fill="#E23D26" stroke="#A32326" stroke-width="2" stroke-miterlimit="10" cx="593.106" cy="191.134" rx="9.982" ry="10.417"/>
	<circle fill="#E23D26" stroke="#A32326" stroke-width="2" stroke-miterlimit="10" cx="565.854" cy="189.51" r="9.981"/>
	
		<ellipse fill="#E23D26" stroke="#A32326" stroke-width="2" stroke-miterlimit="10" cx="572.826" cy="188.955" rx="10.141" ry="10.22"/>
	
		<ellipse fill="#E23D26" stroke="#A32326" stroke-width="2" stroke-miterlimit="10" cx="581.024" cy="173.942" rx="10.972" ry="11.369"/>
	
		<ellipse fill="#4064AF" stroke="#4795D1" stroke-width="2" stroke-miterlimit="10" cx="596.274" cy="178.418" rx="10.853" ry="11.171"/>
	<circle fill="#4064AF" stroke="#4795D1" stroke-width="2" stroke-miterlimit="10" cx="561.972" cy="176.121" r="11.249"/>
	<circle fill="#E23D26" stroke="#A32326" stroke-width="2" stroke-miterlimit="10" cx="574.569" cy="167.487" r="11.25"/>
</g>
</svg>
