<svg xmlns="http://www.w3.org/2000/svg" viewBox="0 0 96 96" id="bacteria-test">
  <g>
    <path fill="#ff9b61" d="M86.36,52.87A42.09,42.09,0,1,1,44.27,10.79,42.08,42.08,0,0,1,86.36,52.87Z"></path>
    <path fill="#e57c48" d="M73.68,22.77c-52.63,0-50.18,0-50.28,0a17.89,17.89,0,0,1-6.82-1.56A42.06,42.06,0,0,1,73.68,22.77Z"></path>
    <path fill="#9fdbff" d="M78.69,52.87A34.42,34.42,0,1,1,44.27,18.45,34.42,34.42,0,0,1,78.69,52.87Z"></path>
    <path fill="#7cb3eb" d="M61,22.77H27.57A34.43,34.43,0,0,1,61,22.77Z"></path>
    <path fill="#c2efff" d="M75.69,52.87A31.42,31.42,0,1,1,44.27,21.45,31.45,31.45,0,0,1,75.69,52.87Z"></path>
    <path fill="#9fdbff" d="M53.27,22.77h-18A31.31,31.31,0,0,1,53.27,22.77Z"></path>
    <path fill="#5caee0" d="M33.6,68.7A10.55,10.55,0,0,0,43.93,79.29a26.35,26.35,0,0,0,19.29-8,7.79,7.79,0,0,0-5.66-13.15H44.19A10.59,10.59,0,0,0,33.6,68.7Z"></path>
    <path fill="#fff" d="M37.4,44.19q1-2.8,2-5.64A6.56,6.56,0,0,0,29.53,31a26.54,26.54,0,0,0-9.84,12.25,6.57,6.57,0,0,0,6.08,9A12.1,12.1,0,0,0,37.4,44.19Z"></path>
    <path fill="#84d6ff" d="M64.72,43.3A26.53,26.53,0,0,0,55,31.06a6.54,6.54,0,0,0-9.71,3l-3.66,9.15a6.56,6.56,0,0,0,6.09,9H58.61A6.55,6.55,0,0,0,64.72,43.3Z"></path>
    <path fill="#3ab67d" d="M60,68.08a6,6,0,0,1-4.45,8,42.62,42.62,0,0,1-15.44,0,6.06,6.06,0,0,1,2.22-11.91,30.35,30.35,0,0,0,11,0A6,6,0,0,1,60,68.08Z"></path>
    <path fill="#44cf87" d="M40.66,73.17a2.88,2.88,0,0,1-2-1.42,3.09,3.09,0,0,1,3.12-4.59,33.59,33.59,0,0,0,12.08,0,3.06,3.06,0,0,1,1.14,6A39.83,39.83,0,0,1,40.66,73.17Z"></path>
    <circle cx="33.4" cy="34.33" r="4.28" fill="#ffca6e"></circle>
    <circle cx="33.4" cy="34.33" r="2.28" fill="#ffe391"></circle>
    <rect width="6.27" height="9.17" x="61.95" y="44.82" fill="#7a6dbd" rx="1.69" transform="rotate(-50.01 65.082 49.411)"></rect>
    <path fill="#aca9d6" d="M63.1,47.75a1.13,1.13,0,0,1,1.6-.14l2.22,1.86a1.14,1.14,0,1,1-1.46,1.74l-2.22-1.86A1.14,1.14,0,0,1,63.1,47.75Z"></path>
    <rect width="6.27" height="9.17" x="19.77" y="47.42" fill="#7a6dbd" rx="1.69" transform="rotate(84.99 22.897 52.001)"></rect>
    <path fill="#aca9d6" d="M21.36,51l2.89-.25a1.13,1.13,0,0,1,1.23,1,1.15,1.15,0,0,1-1,1.23l-2.88.25a1.13,1.13,0,1,1-.2-2.26Z"></path>
    <path fill="#e57c48" d="M75.73,24.93H69a5.18,5.18,0,0,1-5.17-5.16V15.6A41.91,41.91,0,0,1,75.73,24.93Z"></path>
    <path fill="#302d3d" d="M44.27,96A43.08,43.08,0,1,1,87.36,52.87,43.13,43.13,0,0,1,44.27,96Zm0-84.16A41.08,41.08,0,1,0,85.36,52.87,41.13,41.13,0,0,0,44.27,11.79Z"></path>
    <path fill="#302d3d" d="M44.27,88.29A35.42,35.42,0,1,1,79.69,52.87,35.45,35.45,0,0,1,44.27,88.29Zm0-68.84A33.42,33.42,0,1,0,77.69,52.87,33.45,33.45,0,0,0,44.27,19.45Z"></path>
    <path fill="#302d3d" d="M39.94,77.1a6.91,6.91,0,0,1-4.73-3.36c-2.91-5.07,1.36-11.61,7.31-10.52a29.27,29.27,0,0,0,10.64,0c6-1.09,10.22,5.45,7.31,10.52a6.89,6.89,0,0,1-4.72,3.36A43.76,43.76,0,0,1,39.94,77.1Zm1.33-12a5.07,5.07,0,0,0-1,10,41.54,41.54,0,0,0,15.08,0,4.91,4.91,0,0,0,3.36-2.39,5.09,5.09,0,0,0-5.22-7.55C46.89,66.41,42.46,65.11,41.27,65.11Z"></path>
    <path fill="#302d3d" d="M32.7 74.06a1 1 0 01-.26-2L35 71.4a1 1 0 01.51 1.93A19.29 19.29 0 0132.7 74.06zM35.28 69.59c-.24 0-.16 0-2.66-.91a1 1 0 01.69-1.88l2.31.85A1 1 0 0135.28 69.59zM36.68 78.15a1 1 0 01-.76-1.65l1.48-1.77A1 1 0 0138.94 76l-1.49 1.77A1 1 0 0136.68 78.15zM43.65 80.38a1 1 0 01-1-1.06l.16-2.75a1 1 0 112 .12l-.17 2.75A1 1 0 0143.65 80.38zM50.6 80.43a1 1 0 01-1-.94l-.16-2.61a1 1 0 112-.12l.16 2.61A1 1 0 0150.6 80.43zM57.09 79.47a1 1 0 01-.93-.62l-1-2.49A1 1 0 0157 75.61l1 2.49A1 1 0 0157.09 79.47zM62.24 75.12c-.36 0-.3 0-2.88-1.55a1 1 0 111-1.72l2.37 1.41A1 1 0 0162.24 75.12zM59.57 68.13A1 1 0 0159 66.31l2.45-1.72a1 1 0 111.15 1.63C59.9 68.12 60 68.13 59.57 68.13zM55.64 65.24a1 1 0 01-1-1l.12-2.14a1 1 0 012 .12l-.12 2.13A1 1 0 0155.64 65.24zM49.59 65.65a1 1 0 01-1-1l-.05-2.11a1 1 0 011-1 1 1 0 011 1l.05 2.12A1 1 0 0149.59 65.65zM42.35 65.21a1 1 0 01-1-1.12L41.59 62a1 1 0 012 .22l-.24 2.1A1 1 0 0142.35 65.21zM37.73 66.3a1 1 0 01-.85-.47L35.57 63.7a1 1 0 011.7-1.05l1.31 2.13A1 1 0 0137.73 66.3zM33.4 39.61a5.28 5.28 0 115.28-5.28A5.29 5.29 0 0133.4 39.61zm0-8.56a3.28 3.28 0 103.28 3.28A3.28 3.28 0 0033.4 31.05z"></path>
    <path fill="#302d3d" d="M33.4 31.05a1 1 0 01-1-1V27.32a1 1 0 012 0v2.73A1 1 0 0133.4 31.05zM33.4 42.34a1 1 0 01-1-1V38.61a1 1 0 012 0v2.73A1 1 0 0133.4 42.34zM40.41 35.33H37.68a1 1 0 110-2h2.73a1 1 0 010 2zM29.12 35.33H26.39a1 1 0 010-2h2.73a1 1 0 110 2zM36.43 32.3a1 1 0 01-.71-1.71l1.93-1.93a1 1 0 111.41 1.42C37 32.14 37 32.3 36.43 32.3zM28.45 40.28a1 1 0 01-.71-1.7l1.93-1.93a1 1 0 011.41 1.41C29 40.13 29 40.28 28.45 40.28zM38.36 40.28c-.54 0-.57-.15-2.64-2.22a1 1 0 010-1.41 1 1 0 011.42 0l1.92 1.93A1 1 0 0138.36 40.28zM30.37 32.3c-.53 0-.56-.15-2.63-2.22a1 1 0 010-1.42 1 1 0 011.41 0l1.93 1.93A1 1 0 0130.37 32.3zM64.64 54.43l-4.43-3.72a2.68 2.68 0 01-.33-3.79l1.85-2.21a2.71 2.71 0 013.8-.33L70 48.09a2.71 2.71 0 01.33 3.8h0L68.43 54.1A2.69 2.69 0 0164.64 54.43zm-.84-8.68c-.44 0-.39.08-2.39 2.46a.69.69 0 00.09 1c4.79 4 4.53 3.9 4.93 3.88s.31-.05 2.33-2.46a.69.69 0 00-.09-1C63.91 45.63 64.16 45.75 63.8 45.75zm5.72 5.5h0zM20.15 56.38a2.71 2.71 0 01-2.69-2.46l-.25-2.87a2.69 2.69 0 012.45-2.92l5.76-.5a2.69 2.69 0 012.92 2.45L28.59 53a2.7 2.7 0 01-2.45 2.92C19.81 56.42 20.31 56.38 20.15 56.38zm-.69-2.63a.69.69 0 00.75.63L26 53.87a.69.69 0 00.63-.75c-.28-3.13-.21-3.09-.5-3.34s-.11-.19-6.26.34a.7.7 0 00-.63.76zM53.74 55.91c-.53 0-.62-.2-1.87-1.46A1 1 0 0153.28 53l1.16 1.16A1 1 0 0153.74 55.91zM50 27.71a1 1 0 01-.35-1.94l1.07-.4A1 1 0 0152 26a1 1 0 01-.59 1.28C50.24 27.68 50.22 27.71 50 27.71zM48.15 42a1 1 0 01-1-.88L47 39.74a1 1 0 012-.23l.16 1.35A1 1 0 0148.15 42zM38.78 49.85A1 1 0 0138.23 48l1.4-.92a1 1 0 011.38.29 1 1 0 01-.28 1.39C39.2 49.77 39.18 49.85 38.78 49.85zM59.31 37.67A1 1 0 0158.58 36l2.2-2.34a1 1 0 011.41 0A1 1 0 0162.24 35L60 37.36A1 1 0 0159.31 37.67zM26.23 70.6c-.45 0-.36 0-3.41-2.24A1 1 0 0124 66.74l2.83 2.05A1 1 0 0126.23 70.6z"></path>
    <path fill="#dbe5ff" d="M66.83,3.21V19.77h-43a14.8,14.8,0,0,1-8.72-2.88l-.75-.53a8.8,8.8,0,0,0-5.2-1.71H5.55a3.16,3.16,0,1,1,0-6.32c4.93,0,5.91.36,9.58-2.24a14.72,14.72,0,0,1,8.72-2.87C24,3.19,23.27,3.21,66.83,3.21Z"></path>
    <path fill="#bdccff" d="M63.31,3.21a13,13,0,0,1-13,13H14.22c-2.72-1.93-5-1.6-8.67-1.6a3.16,3.16,0,0,1,0-6.32c4.93,0,5.91.36,9.58-2.24A14.84,14.84,0,0,1,24,3.21Z"></path>
    <rect width="27.89" height="5.28" x="24.57" y="6.21" fill="#fff" rx="1.69"></rect>
    <path fill="#302d3d" d="M66.83,20.77c-43.24,0-42.89,0-43,0a15.72,15.72,0,0,1-9.28-3.07l-.73-.52a7.89,7.89,0,0,0-4.63-1.52H5.55a4.16,4.16,0,1,1,0-8.32c4.77,0,5.62.36,9-2.06A15.88,15.88,0,0,1,24,2.2H66.83a1,1,0,0,1,1,1V19.77A1,1,0,0,1,66.83,20.77Zm-1-2V4.2c-63,0-33.87,0-42,0a13.83,13.83,0,0,0-8.14,2.68L15,7.43a9.91,9.91,0,0,1-5.8,1.9H5.55A2.16,2.16,0,0,0,4,13a2.12,2.12,0,0,0,1.52.63H9.17a9.84,9.84,0,0,1,5.8,1.9l.74.53a13.76,13.76,0,0,0,8.14,2.68C32,18.76,2.81,18.77,65.83,18.77Z"></path>
    <path fill="#302d3d" d="M60.88 11.13a1 1 0 01-1-1V3.2a1 1 0 112 0v6.93A1 1 0 0160.88 11.13zM52.46 8.5a1 1 0 01-1-1V3.2a1 1 0 012 0V7.5A1 1 0 0152.46 8.5zM44 8.5a1 1 0 01-1-1V3.2a1 1 0 012 0V7.5A1 1 0 0144 8.5zM35.61 8.5a1 1 0 01-1-1V3.2a1 1 0 012 0V7.5A1 1 0 0135.61 8.5zM27.19 11.13a1 1 0 01-1-1V3.2a1 1 0 112 0v6.93A1 1 0 0127.19 11.13z"></path>
    <path fill="#504682" d="M93.81,10.6v1.78A3.84,3.84,0,0,1,90,16.22H78.42V6.76H90A3.84,3.84,0,0,1,93.81,10.6Z"></path>
    <path fill="#555faa" d="M91.83,7.24v4.7a2.34,2.34,0,0,1-2.34,2.34H78.42V6.76H90A3.76,3.76,0,0,1,91.83,7.24Z"></path>
    <rect width="6.07" height="9.46" x="78.42" y="6.76" fill="#3c3264"></rect>
    <rect width="3" height="9.46" x="78.42" y="6.76" fill="#282350"></rect>
    <path fill="#d2172c" d="M78.42,3.21V19.77a2.17,2.17,0,0,1-2.17,2.16H69a2.17,2.17,0,0,1-2.17-2.16V3.21A2.17,2.17,0,0,1,69,1.05h7.25A2.17,2.17,0,0,1,78.42,3.21Z"></path>
    <path fill="#ff4e3b" d="M78.42,3.21V16.64A1.42,1.42,0,0,1,77,18.06H68.26a1.42,1.42,0,0,1-1.43-1.42V3.21A2.17,2.17,0,0,1,69,1.05h7.25A2.17,2.17,0,0,1,78.42,3.21Z"></path>
    <path fill="#ff9468" d="M78.42,3.21V5.37a2.17,2.17,0,0,0-2.17-2.16H69a2.17,2.17,0,0,0-2.17,2.16V3.21A2.17,2.17,0,0,1,69,1.05h7.25A2.17,2.17,0,0,1,78.42,3.21Z"></path>
    <path fill="#302d3d" d="M90,17.22H78.41a1,1,0,0,1-1-1V6.76a1,1,0,0,1,1-1H90a4.85,4.85,0,0,1,4.84,4.84v1.78A4.85,4.85,0,0,1,90,17.22Zm-10.56-2H90a2.85,2.85,0,0,0,2.84-2.84V10.6A2.84,2.84,0,0,0,90,7.76H79.41Z"></path>
    <path fill="#302d3d" d="M84.49,17.22H78.41a1,1,0,0,1-1-1V6.76a1,1,0,0,1,1-1h6.08a1,1,0,0,1,1,1v9.46A1,1,0,0,1,84.49,17.22Zm-5.08-2h4.08V7.76H79.41Z"></path>
    <path fill="#302d3d" d="M76.25,22.93H69a3.17,3.17,0,0,1-3.17-3.16V3.21A3.17,3.17,0,0,1,69,0h7.25a3.17,3.17,0,0,1,3.16,3.17V19.77A3.17,3.17,0,0,1,76.25,22.93ZM69,2a1.17,1.17,0,0,0-1.17,1.17V19.77A1.16,1.16,0,0,0,69,20.93h7.25a1.16,1.16,0,0,0,1.16-1.16V3.21A1.17,1.17,0,0,0,76.25,2Z"></path>
    <path fill="#302d3d" d="M74.86 19.06H70.38a1 1 0 010-2h4.48a1 1 0 010 2zM74.86 12.49H70.38a1 1 0 010-2h4.48a1 1 0 010 2zM74.86 5.92H70.38a1 1 0 010-2h4.48a1 1 0 010 2z"></path>
  </g>
</svg>
