<svg xmlns="http://www.w3.org/2000/svg" width="64" height="64" enable-background="new 0 0 64 64" viewBox="0 0 64 64" id="beaker">
  <path fill="#2C2E63" d="M56.617,15.19c-0.46-0.95-1.4-1.54-2.45-1.54h-7.46l3.14-12.45c0.13-0.52-0.19-1.04-0.71-1.17
		c-0.52-0.13-1.04,0.18-1.17,0.7l-3.26,12.92H9.837c-1.05,0-1.99,0.59-2.45,1.54c-0.45,0.95-0.33,2.05,0.33,2.88l2.13,2.65
		c0.11,0.14,0.17,0.31,0.17,0.49v36.58c0,3.42,2.79,6.21,6.21,6.21h31.54c3.43,0,6.21-2.79,6.21-6.21V21.21
		c0-0.18,0.06-0.35,0.17-0.49l2.13-2.65C56.937,17.24,57.067,16.14,56.617,15.19z M11.357,19.51l-2.13-2.66
		c-0.27-0.34-0.15-0.69-0.09-0.82c0.07-0.13,0.26-0.44,0.7-0.44h34.38l-5.98,23.71c-1.16-0.25-2.33-0.53-3.53-0.83
		c-5.95-1.49-12.67-3.15-22.75-0.87V21.21C11.957,20.59,11.747,19.99,11.357,19.51z M52.037,57.79c0,2.35-1.91,4.27-4.27,4.27
		h-31.54c-2.35,0-4.27-1.92-4.27-4.27v-18.2c9.88-2.32,16.46-0.69,22.28,0.76c1.19,0.29,2.35,0.58,3.53,0.83l-3.56,14.12
		c-0.14,0.52,0.18,1.05,0.7,1.18c0.08,0.02,0.16,0.03,0.24,0.03c0.43,0,0.83-0.3,0.94-0.73l3.59-14.24
		c1.38,0.23,2.79,0.38,4.25,0.38c2.51,0,5.17-0.44,8.11-1.62V57.79z M54.767,16.85l-2.13,2.66c-0.38,0.48-0.6,1.08-0.6,1.7v16.98
		c-4.47,1.97-8.19,2.06-11.89,1.47l6.07-24.07h7.95c0.44,0,0.63,0.31,0.7,0.44C54.927,16.16,55.047,16.51,54.767,16.85z"></path>
  <path fill="#EDEDED" d="M54.767 16.85l-2.13 2.66c-.38.48-.6 1.08-.6 1.7v16.98c-4.47 1.97-8.19 2.06-11.89 1.47l6.07-24.07h7.95c.44 0 .63.31.7.44C54.927 16.16 55.047 16.51 54.767 16.85zM44.217 15.59l-5.98 23.71c-1.16-.25-2.33-.53-3.53-.83-5.95-1.49-12.67-3.15-22.75-.87V21.21c0-.62-.21-1.22-.6-1.7l-2.13-2.66c-.27-.34-.15-.69-.09-.82.07-.13.26-.44.7-.44H44.217z"></path>
  <path fill="#F9AF48" d="M52.037,40.3v17.49c0,2.35-1.91,4.27-4.27,4.27h-31.54c-2.35,0-4.27-1.92-4.27-4.27v-18.2
		c9.88-2.32,16.46-0.69,22.28,0.76c1.19,0.29,2.35,0.58,3.53,0.83l-3.56,14.12c-0.14,0.52,0.18,1.05,0.7,1.18
		c0.08,0.02,0.16,0.03,0.24,0.03c0.43,0,0.83-0.3,0.94-0.73l3.59-14.24c1.38,0.23,2.79,0.38,4.25,0.38
		C46.437,41.92,49.097,41.48,52.037,40.3z"></path>
  <path fill="#D6D6D6" d="M54.767 16.85l-2.13 2.66c-.38.48-.6 1.08-.6 1.7v16.98c-.87.39-1.72.7-2.54.94V20.94c0-.59.19-1.16.52-1.62l1.86-2.53c.25-.32.14-.66.09-.78-.06-.12-.22-.42-.61-.42h2.81c.44 0 .63.31.7.44C54.927 16.16 55.047 16.51 54.767 16.85zM14.497 20.94v16.15c-.82.15-1.67.31-2.54.51V21.21c0-.62-.21-1.22-.6-1.7l-2.13-2.66c-.27-.34-.15-.69-.09-.82.07-.13.26-.44.7-.44h2.81c-.39 0-.55.3-.61.42-.05.12-.16.46.08.78l1.86 2.53C14.317 19.78 14.497 20.35 14.497 20.94z"></path>
  <path fill="#ED9B3A" d="M52.037,40.3v17.49c0,2.35-1.91,4.27-4.27,4.27h-31.54c-2.35,0-4.27-1.92-4.27-4.27v-18.2
		c0.87-0.2,1.72-0.38,2.54-0.53v16.72c0,2.23,1.68,4.06,3.73,4.06h27.54c2.06,0,3.73-1.83,3.73-4.06V41.15
		C50.317,40.93,51.167,40.65,52.037,40.3z"></path>
</svg>
