<svg xmlns="http://www.w3.org/2000/svg" viewBox="0 0 64 64" id="botany-experiment">
  <path fill="#d0d0d0" d="M42,23.68V10a1,1,0,0,0-1-1H23a1,1,0,0,0-1,1V23.68a20,20,0,1,0,20,0Z"></path>
  <path fill="#a59c99" d="M32,38a1,1,0,0,0-1,1V60a1,1,0,0,0,2,0V39A1,1,0,0,0,32,38Z"></path>
  <path fill="#76b82a" d="M30.71 47.29C28.21 44.8 24.12 45 23.94 45a1 1 0 0 0-.94.94c0 .18-.2 4.27 2.29 6.77 2.12 2.12 5.39 2.3 6.44 2.3h.33a1 1 0 0 0 .94-.94C33 53.88 33.2 49.79 30.71 47.29zM32.67 26.25a1 1 0 0 0-1.34 0c-.13.13-3.33 3-3.33 6.75s3.2 6.62 3.33 6.75a1 1 0 0 0 1.34 0c.13-.13 3.33-3 3.33-6.75S32.8 26.38 32.67 26.25z"></path>
  <path fill="#76b82a" d="M41,40.94a1,1,0,0,0-.94-.94c-.18,0-4.27-.2-6.77,2.29S31,48.88,31,49.06a1,1,0,0,0,.94.94h.33c1,0,4.32-.18,6.44-2.3C41.2,45.21,41,41.12,41,40.94Z"></path>
  <rect width="3" height="3" x="6" y="53" fill="#fff155"></rect>
  <rect width="3" height="3" x="3" y="50" fill="#fff155"></rect>
  <rect width="3" height="3" x="6" y="47" fill="#fff155"></rect>
  <rect width="3" height="3" x="9" y="50" fill="#fff155"></rect>
  <rect width="3" height="3" x="51" y="25" fill="#fff155"></rect>
  <rect width="3" height="3" x="48" y="22" fill="#fff155"></rect>
  <rect width="3" height="3" x="51" y="19" fill="#fff155"></rect>
  <rect width="3" height="3" x="54" y="22" fill="#fff155"></rect>
  <circle cx="58" cy="6" r="3" fill="#eb5d40"></circle>
  <circle cx="55" cy="51" r="3" fill="#eb5d40"></circle>
  <circle cx="11" cy="19" r="3" fill="#eb5d40"></circle>
  <path fill="#a59c99" d="M31,14H23a1,1,0,0,0,0,2h8a1,1,0,0,0,0-2Z"></path>
  <path fill="#a59c99" d="M32,61A20,20,0,0,1,22,23.68V10a1,1,0,0,1,1-1H41a1,1,0,0,1,1,1V23.68A20,20,0,0,1,32,61ZM24,11V24.27a1,1,0,0,1-.53.88,18,18,0,1,0,17.06,0,1,1,0,0,1-.53-.88V11Z"></path>
  <rect width="28" height="8" x="18" y="3" fill="#a59c99" rx="1"></rect>
</svg>
