<svg xmlns="http://www.w3.org/2000/svg" width="64" height="64" enable-background="new 0 0 64 64" viewBox="0 0 64 64" id="flask-burner">
  <polygon fill="#545C66" points="48.016 40 52.016 63 48.016 63 44.016 40"></polygon>
  <path fill="#FFCE54" d="M31.975,47c1.66,0,3,2.35,3,4c0,1.66-1.34,3-3,3s-3-1.34-3-3C28.975,49.35,30.314,47,31.975,47z"></path>
  <polygon fill="#545C66" points="19.975 40 15.984 63 11.984 63 15.975 40"></polygon>
  <polygon fill="#656D78" points="44.016 40 42.564 40 21.395 40 19.975 40 15.975 40 13.975 40 13.975 36 18.115 36 45.836 36 49.975 36 49.975 40 48.016 40"></polygon>
  <path fill="#E6E9ED" d="M39.975,58v3c0,1.1-0.9,2-2,2h-12c-1.1,0-2-0.9-2-2v-3c0-1.1,0.9-2,2-2h6h6
			C39.074,56,39.975,56.9,39.975,58z"></path>
  <path fill="#F5F7FA" d="M36.975,2v2c0,0.55-0.449,1-1,1h-1h-6h-0.99c-0.549,0-1-0.45-1-1V2c0-0.55,0.451-1,1-1h7.99
			C36.525,1,36.975,1.45,36.975,2z"></path>
  <path fill="#ED5565" d="M21.395,40h21.17c-2.82,2.49-6.529,4-10.59,4C27.916,44,24.215,42.49,21.395,40z"></path>
  <path fill="#E6E9ED" d="M47.176,23h-30.4c1.799-5.47,6.459-9.63,12.199-10.72V5h6v7.28C40.715,13.37,45.375,17.53,47.176,23z"></path>
  <path fill="#ED5565" d="M47.176,23c0.52,1.57,0.799,3.25,0.799,5c0,2.91-0.779,5.65-2.139,8H18.115
			c-1.359-2.36-2.141-5.09-2.141-8c0-1.75,0.281-3.43,0.801-5H47.176z"></path>
  <g>
    <path d="M45.837 37c-.17 0-.342-.043-.5-.135-.478-.276-.642-.889-.364-1.366 1.313-2.269 2.007-4.862 2.007-7.501 0-7.201-5.126-13.398-12.188-14.736-.542-.103-.898-.626-.796-1.169.103-.542.619-.897 1.169-.796 8.005 1.517 13.815 8.54 13.815 16.701 0 2.99-.787 5.931-2.276 8.503C46.518 36.821 46.183 37 45.837 37zM18.119 36.996c-.346 0-.682-.179-.867-.5-1.486-2.572-2.272-5.511-2.272-8.498 0-8.159 5.809-15.183 13.813-16.701.55-.099 1.066.254 1.169.796.103.543-.254 1.066-.796 1.169-7.061 1.34-12.186 7.537-12.186 14.736 0 2.637.693 5.229 2.005 7.498.276.478.112 1.09-.366 1.366C18.461 36.953 18.289 36.996 18.119 36.996zM31.979 44.998c-4.144 0-8.136-1.508-11.241-4.246-.414-.365-.454-.997-.089-1.411.366-.416 1-.453 1.411-.089 2.74 2.416 6.263 3.746 9.919 3.746 3.672 0 7.204-1.34 9.948-3.771.412-.366 1.044-.331 1.411.085.366.413.328 1.045-.085 1.411C40.145 43.479 36.141 44.998 31.979 44.998zM15.985 64h-4.001c-.553 0-1-.447-1-1s.447-1 1-1h4.001c.553 0 1 .447 1 1S16.538 64 15.985 64zM52.016 64h-4.001c-.553 0-1-.447-1-1s.447-1 1-1h4.001c.553 0 1 .447 1 1S52.568 64 52.016 64z"></path>
    <path d="M49.979 36.996H13.98c-.553 0-1-.447-1-1s.447-1 1-1h35.998c.553 0 1 .447 1 1S50.531 36.996 49.979 36.996zM49.979 40.996H13.98c-.553 0-1-.447-1-1s.447-1 1-1h35.998c.553 0 1 .447 1 1S50.531 40.996 49.979 40.996z"></path>
    <path d="M11.985 64c-.057 0-.114-.005-.172-.015-.545-.095-.909-.612-.814-1.156l3.998-23.004c.096-.544.615-.905 1.156-.814.545.095.909.612.814 1.156L12.97 63.171C12.885 63.657 12.463 64 11.985 64zM15.986 64c-.057 0-.114-.005-.172-.015-.545-.095-.909-.612-.814-1.156l3.998-23.004c.095-.544.611-.905 1.156-.814.545.095.909.612.814 1.156l-3.998 23.004C16.886 63.657 16.464 64 15.986 64z"></path>
    <path d="M13.98 40.996c-.553 0-1-.447-1-1v-4c0-.553.447-1 1-1s1 .447 1 1v4C14.98 40.549 14.533 40.996 13.98 40.996zM52.015 64c-.478 0-.899-.343-.984-.829l-3.998-23.004c-.095-.544.27-1.062.814-1.156.543-.092 1.061.271 1.156.814l3.998 23.004c.095.544-.27 1.062-.814 1.156C52.129 63.995 52.071 64 52.015 64zM48.014 64c-.478 0-.899-.343-.984-.829l-3.998-23.004c-.095-.544.27-1.062.814-1.156.547-.092 1.062.271 1.156.814L49 62.829c.095.544-.27 1.062-.814 1.156C48.128 63.995 48.07 64 48.014 64z"></path>
    <path d="M49.979,40.996c-0.553,0-1-0.447-1-1v-4c0-0.553,0.447-1,1-1s1,0.447,1,1v4C50.979,40.549,50.531,40.996,49.979,40.996z"></path>
    <g>
      <path d="M37.979,64H25.98c-1.654,0-3-1.346-3-3v-2.998c0-1.654,1.346-3,3-3h11.998c1.654,0,3,1.346,3,3V61
			C40.979,62.654,39.633,64,37.979,64z M25.98,57.002c-0.552,0-1,0.448-1,1V61c0,0.552,0.448,1,1,1h11.998c0.552,0,1-0.448,1-1
			v-2.998c0-0.552-0.448-1-1-1H25.98z"></path>
    </g>
    <g>
      <path d="M31.979,55.002c-2.206,0-4-1.794-4-4c0-1.991,1.596-5.002,4-5.002s4,3.011,4,5.002
			C35.979,53.208,34.185,55.002,31.979,55.002z M31.979,48c-0.966,0-2,1.762-2,3.002c0,1.103,0.897,2,2,2s2-0.897,2-2
			C33.979,49.762,32.944,48,31.979,48z"></path>
    </g>
    <g>
      <path d="M31.979,57.002c-0.552,0-1-0.447-1-0.999l-0.001-2c0-0.553,0.447-1.001,0.999-1.001c0.001,0,0.001,0,0.001,0
			c0.552,0,1,0.447,1,0.999l0.001,2C32.979,56.554,32.532,57.002,31.979,57.002L31.979,57.002z"></path>
    </g>
    <g>
      <path d="M28.979,13.279c-0.553,0-1-0.447-1-1V5c0-0.553,0.447-1,1-1s1,0.447,1,1v7.279C29.979,12.832,29.532,13.279,28.979,13.279
			z"></path>
    </g>
    <g>
      <path d="M34.979,13.279c-0.553,0-1-0.447-1-1V5c0-0.553,0.447-1,1-1s1,0.447,1,1v7.279C35.979,12.832,35.532,13.279,34.979,13.279
			z"></path>
    </g>
    <g>
      <path d="M35.979,6h-7.987c-1.103,0-2-0.897-2-2V2c0-1.103,0.897-2,2-2h7.987c1.103,0,2,0.897,2,2v2
			C37.979,5.103,37.081,6,35.979,6z M35.979,4v1V4L35.979,4L35.979,4z M27.991,2v2h7.984l0.003-2H27.991z"></path>
    </g>
    <g>
      <path d="M47.183,24H16.776c-0.553,0-1-0.447-1-1s0.447-1,1-1h30.406c0.553,0,1,0.447,1,1S47.735,24,47.183,24z"></path>
    </g>
  </g>
</svg>
