<svg xmlns="http://www.w3.org/2000/svg" width="512" height="512" enable-background="new 0 0 512 512" viewBox="0 0 512 512" id="cell">
  <path fill="#F8981D" d="M300.152,474.013c-7.856,0-15.692-0.74-23.272-1.457c-7.344-0.694-14.279-1.35-20.987-1.35
				c-26.891,0-49.733-6.297-66.628-11.782l-2.3-0.746c-20.308-6.584-41.308-13.392-59.943-26.953
				c-16.765-12.203-35.877-26.905-50.518-47.02c-2.512-3.452-5.147-6.902-7.937-10.555c-10.892-14.258-23.235-30.419-29.392-49.38
				c-6.709-20.663-6.651-43.053-6.595-64.705c0.005-1.909,0.01-3.813,0.01-5.706c0-18.174,6.928-33.983,13.04-47.932
				c2.749-6.272,5.345-12.196,7.24-18.032c1.941-5.98,3.427-12.195,4.998-18.775c3.729-15.605,7.584-31.742,18.007-46.063
				c1.25-1.717,2.502-3.452,3.762-5.196c11.761-16.289,25.091-34.751,42.813-47.648c14.468-10.529,31.322-14.746,47.621-18.823
				c6.481-1.621,12.603-3.152,18.401-5.035c22.969-7.458,46.585-7.458,67.421-7.458c5.989,0,12.229-0.352,18.264-0.691
				c6.262-0.353,12.736-0.717,19.189-0.717c12.327,0,22.316,1.379,31.437,4.34c23.088,7.497,42.55,20.883,60.504,33.95
				c19.685,14.325,36.221,30.596,49.146,48.356c3.072,4.22,6.437,8.444,10.001,12.917c10.566,13.259,22.541,28.287,28.398,46.327
				c6.706,20.648,6.645,43.058,6.588,64.729c-0.005,1.925-0.01,3.843-0.01,5.752c0,25.481-3.381,48.815-10.05,69.354
				c-8.167,25.156-22.985,47.129-33.419,61.468c-13.84,19.015-30.388,35.594-49.189,49.275c-1.686,1.227-3.382,2.472-5.089,3.724
				c-16.175,11.864-34.507,25.313-55.597,32.16C318.459,472.812,309.982,474.013,300.152,474.013z"></path>
  <path d="M300.152,482.013c-8.241,0-16.266-0.759-24.025-1.492c-7.147-0.676-13.897-1.314-20.234-1.314
				c-28.012,0-51.642-6.506-69.099-12.173l-2.298-0.746c-20.905-6.777-42.519-13.784-62.182-28.094
				c-17.259-12.563-36.956-27.729-52.279-48.78c-2.464-3.387-5.069-6.797-7.826-10.407c-11.279-14.765-24.063-31.5-30.643-51.765
				c-7.104-21.878-7.043-44.916-6.986-67.195l0-0.106c0.004-1.867,0.009-3.728,0.009-5.58c0-19.849,7.285-36.474,13.711-51.141
				c2.668-6.087,5.187-11.835,6.959-17.293c1.848-5.693,3.294-11.75,4.826-18.163c3.912-16.371,7.956-33.299,19.32-48.913
				c1.23-1.69,2.464-3.399,3.704-5.116c12.15-16.829,25.876-35.839,44.631-49.489c15.728-11.446,33.347-15.853,50.387-20.116
				c6.343-1.586,12.333-3.085,17.872-4.883c24.173-7.849,48.462-7.849,69.892-7.849c5.762,0,11.884-0.345,17.806-0.678
				c6.378-0.359,12.964-0.73,19.647-0.73c13.191,0,23.966,1.503,33.907,4.731c24.204,7.86,44.267,21.645,62.741,35.091
				c20.36,14.817,37.488,31.679,50.907,50.117c2.996,4.115,6.295,8.255,9.788,12.639c10.989,13.789,23.444,29.417,29.752,48.842
				c7.097,21.854,7.037,44.902,6.979,67.192c-0.005,1.946-0.01,3.857-0.01,5.76c0,26.322-3.513,50.488-10.44,71.825
				c-8.518,26.234-23.803,48.921-34.56,63.704c-14.336,19.695-31.478,36.866-50.951,51.037c-1.542,1.122-3.094,2.261-4.654,3.405
				l-0.41,0.301c-16.672,12.229-35.551,26.076-57.857,33.318C320.119,480.684,310.834,482.013,300.152,482.013z M293.346,45.987
				c-6.233,0-12.591,0.358-18.74,0.704c-6.15,0.347-12.501,0.704-18.713,0.704c-20.243,0-43.187,0-64.951,7.067
				c-6.063,1.969-12.313,3.532-18.931,5.187c-15.557,3.892-31.643,7.916-44.855,17.531c-16.692,12.148-29.624,30.06-41.034,45.863
				c-1.292,1.79-2.538,3.514-3.78,5.221c-9.482,13.028-13.148,28.375-16.694,43.215c-1.607,6.73-3.125,13.087-5.169,19.387
				c-2.018,6.213-4.691,12.314-7.522,18.773c-5.797,13.229-12.367,28.223-12.367,44.721c0,1.865-0.005,3.74-0.009,5.621l0,0.105
				c-0.055,21.025-0.111,42.766,6.204,62.214c5.736,17.666,17.639,33.247,28.141,46.994c2.815,3.687,5.475,7.168,8.047,10.704
				c13.955,19.171,32.484,33.414,48.757,45.259c17.604,12.811,37.986,19.419,57.698,25.81l2.306,0.748
				c16.338,5.304,38.393,11.392,64.16,11.392c7.091,0,14.207,0.673,21.74,1.385c7.391,0.699,15.033,1.422,22.52,1.422
				c8.978,0,16.646-1.073,23.443-3.28c19.859-6.448,37.637-19.487,53.32-30.991l0.426-0.312c1.576-1.157,3.145-2.307,4.703-3.441
				c18.121-13.186,34.078-29.172,47.429-47.515c10.113-13.899,24.464-35.163,32.277-59.23c6.409-19.739,9.659-42.242,9.659-66.884
				c0-1.916,0.005-3.841,0.01-5.772c0.055-21.063,0.112-42.813-6.196-62.238c-5.411-16.665-16.905-31.087-27.046-43.813
				c-3.446-4.324-7.011-8.796-10.213-13.194c-12.435-17.086-28.378-32.764-47.386-46.597c-17.435-12.689-36.295-25.674-58.268-32.81
				C314.014,47.242,304.81,45.987,293.346,45.987z"></path>
  <path fill="#FCB64E" d="M293.346,68.203c-5.604,0-11.377,0.325-17.49,0.669c-6.451,0.363-13.123,0.74-19.963,0.74
			c-19.503,0-39.67,0-58.089,5.98c-6.788,2.204-13.708,3.936-20.4,5.609c-14.119,3.532-27.455,6.868-37.175,13.941
			c-13.824,10.061-25.146,25.741-36.095,40.905c-1.281,1.775-2.556,3.54-3.828,5.288c-6.869,9.438-9.871,22.003-13.048,35.305
			c-1.64,6.864-3.335,13.962-5.648,21.086c-2.358,7.26-5.381,14.157-8.304,20.828c-5.399,12.321-10.499,23.959-10.499,35.804
			c0,1.92-0.005,3.85-0.01,5.784c-0.05,19.282-0.101,39.219,5.118,55.296c4.563,14.052,14.783,27.431,24.666,40.369
			c2.771,3.629,5.637,7.381,8.356,11.116c10.842,14.897,25.378,26.913,43.866,40.368c14.747,10.733,32.59,16.517,51.481,22.642
			l2.314,0.75c22.247,7.225,39.382,10.306,57.296,10.306c8.133,0,16.113,0.755,23.831,1.483c7.198,0.681,13.998,1.322,20.429,1.322
			c6.704,0,11.973-0.697,16.584-2.192c16.466-5.347,32.016-16.755,47.055-27.786c1.738-1.275,3.465-2.542,5.182-3.792
			c16.017-11.656,30.726-26.395,42.536-42.623c9.221-12.673,22.272-31.956,29.113-53.02c5.687-17.521,8.572-37.716,8.572-60.023
			c0-1.936,0.005-3.881,0.01-5.832c0.051-19.3,0.104-39.256-5.111-55.318c-4.164-12.828-13.456-24.486-23.29-36.828
			c-3.609-4.53-7.342-9.214-10.801-13.968c-11.223-15.42-25.123-29.063-42.496-41.704c-15.99-11.639-33.181-23.515-52.055-29.643
			C309.434,69.113,302.411,68.203,293.346,68.203z"></path>
  <path d="M300.152,451.796c-6.822,0-13.798-0.659-21.182-1.357c-7.563-0.714-15.338-1.448-23.078-1.448
			c-18.805,0-36.679-3.199-59.767-10.697l-2.31-0.748c-19.527-6.332-37.951-12.306-53.722-23.784
			c-19.099-13.899-34.167-26.383-45.627-42.128c-2.658-3.651-5.488-7.357-8.225-10.942c-10.311-13.498-20.952-27.429-25.937-42.78
			c-5.613-17.293-5.56-37.879-5.509-57.787c0.005-1.988,0.01-3.881,0.01-5.764c0-13.519,5.425-25.901,11.169-39.009
			c2.85-6.502,5.791-13.213,8.025-20.094c2.212-6.814,3.87-13.749,5.472-20.455c3.374-14.121,6.556-27.441,14.366-38.172
			c1.265-1.739,2.534-3.495,3.809-5.262c11.319-15.676,23.02-31.881,37.875-42.692c10.977-7.988,25.044-11.507,39.938-15.233
			c6.562-1.641,13.343-3.338,19.874-5.458c19.624-6.372,40.434-6.372,60.56-6.372c6.594,0,13.132-0.368,19.454-0.724
			c6.311-0.355,12.181-0.685,17.999-0.685c9.926,0,17.735,1.034,24.575,3.254c19.989,6.49,37.782,18.766,54.293,30.784
			c18.056,13.139,32.532,27.356,44.257,43.465c3.348,4.601,7.015,9.204,10.562,13.656c10.336,12.971,20.06,25.175,24.67,39.378
			c5.608,17.272,5.555,37.874,5.502,57.796c-0.005,1.968-0.01,3.901-0.01,5.824c0,23.144-3.016,44.169-8.963,62.493
			c-7.191,22.142-20.71,42.141-30.254,55.257c-12.295,16.895-27.613,32.242-44.298,44.385c-1.707,1.243-3.426,2.504-5.156,3.773
			c-15.56,11.413-31.633,23.203-49.316,28.945C313.77,450.976,307.716,451.796,300.152,451.796z M293.346,76.203
			c-5.368,0-11.021,0.318-17.005,0.654c-6.638,0.374-13.404,0.755-20.448,0.755c-18.881,0-38.404,0-55.619,5.589
			c-7.054,2.291-14.108,4.055-20.929,5.761c-13.345,3.339-25.947,6.491-34.409,12.649c-12.791,9.309-23.732,24.462-34.313,39.116
			c-1.289,1.786-2.57,3.559-3.848,5.315c-5.928,8.145-8.749,19.954-11.736,32.457c-1.68,7.029-3.412,14.278-5.821,21.697
			c-2.479,7.635-5.582,14.715-8.583,21.562c-5.058,11.542-9.83,22.433-9.83,32.6c0,1.896-0.005,3.802-0.01,5.712
			c-0.048,18.746-0.098,38.034,4.727,52.898c4.142,12.751,13.939,25.578,23.414,37.982c2.813,3.684,5.7,7.464,8.467,11.265
			c10.229,14.055,24.23,25.599,42.105,38.607c13.712,9.98,30.96,15.573,49.22,21.493l2.334,0.757
			c21.404,6.951,37.8,9.916,54.83,9.916c8.493,0,16.649,0.77,24.537,1.515c7.045,0.666,13.654,1.291,19.723,1.291
			c5.839,0,10.324-0.572,14.116-1.803c15.233-4.946,30.252-15.962,44.775-26.615c1.761-1.292,3.495-2.564,5.22-3.82
			c15.353-11.173,29.452-25.303,40.776-40.862c8.901-12.234,21.486-30.809,27.974-50.783c5.428-16.726,8.181-36.09,8.181-57.553
			c0-1.937,0.005-3.882,0.01-5.834c0.049-18.699,0.1-38.001-4.721-52.845c-3.714-11.443-12.56-22.544-21.924-34.297
			c-3.695-4.637-7.474-9.379-11.026-14.263c-10.725-14.736-24.05-27.801-40.734-39.942c-15.472-11.261-32.062-22.737-49.818-28.502
			C307.784,76.989,301.545,76.203,293.346,76.203z"></path>
  <path fill="#EF4538" d="M248.037,293.533c0,33.137-25.636,65.338-58.773,65.338s-64.609-32.201-64.609-65.338
			s31.472-56.021,64.609-56.021S248.037,260.396,248.037,293.533z"></path>
  <path d="M189.263,366.871c-37.322,0-72.609-35.641-72.609-73.338c0-17.988,8.098-34.544,22.801-46.619
			c13.466-11.06,31.621-17.402,49.808-17.402c18.249,0,35.039,6.3,47.276,17.74c12.573,11.753,19.497,28.189,19.497,46.281
			c0,18.098-6.893,36.442-18.911,50.33C224.286,358.7,207.288,366.871,189.263,366.871z M189.263,245.512
			c-27.225,0-56.609,18.36-56.609,48.021c0,28.937,28.04,57.338,56.609,57.338c29.921,0,50.773-30.218,50.773-57.338
			C240.037,265.708,218.683,245.512,189.263,245.512z"></path>
  <path fill="#FEEA39" d="M327.313,381.829c-11.289,10.469-26.897,9.592-32.94,0.051l0,0c-6.097-9.57-3.185-22.392,5.075-30.128
			c16.407-15.199,28.908-34.145,36.427-55.208c3.863-10.637,14.505-18.358,25.703-16.518l0,0
			c11.148,1.802,18.095,15.807,12.911,30.304C364.749,337.608,348.56,362.145,327.313,381.829z"></path>
  <path d="M309.251,397.361c-9.106,0-17.195-4.188-21.638-11.201c-7.921-12.435-5.249-29.369,6.365-40.247
			c15.434-14.298,27.305-32.288,34.361-52.059c4.732-13.029,17.025-22.101,29.91-22.101c1.543,0,3.099,0.128,4.625,0.378
			c7.071,1.144,13.143,5.44,17.074,12.096c4.896,8.288,5.651,18.784,2.072,28.796c-10.131,28.373-27.169,54.196-49.272,74.674
			C326.03,393.929,317.685,397.361,309.251,397.361z M358.25,287.754c-6.184,0-12.432,4.846-14.856,11.521
			c-7.904,22.145-21.226,42.334-38.51,58.346c-5.87,5.498-7.503,14.093-3.765,19.961c1.525,2.408,4.485,3.779,8.132,3.779
			c4.322,0,8.922-1.968,12.622-5.398c20.225-18.737,35.813-42.361,45.081-68.323c1.946-5.443,1.654-11.152-0.78-15.274
			c-0.852-1.441-2.748-3.937-5.873-4.441C359.609,287.811,358.927,287.754,358.25,287.754z"></path>
  <g>
    <ellipse cx="228.126" cy="151.575" fill="#4CAF4E" rx="52" ry="32" transform="rotate(-15.789 228.096 151.56)"></ellipse>
    <path d="M215.174,193.471c-23.165,0-40.325-9.798-44.785-25.571c-6.102-21.584,14.479-45.662,46.854-54.815
			c7.99-2.259,16.009-3.404,23.835-3.404c23.165,0,40.325,9.798,44.784,25.572c3.11,10.999-0.552,22.899-10.31,33.51
			c-8.795,9.563-21.773,17.129-36.544,21.305C231.019,192.326,223,193.471,215.174,193.471z M241.078,125.68
			c-6.354,0-12.908,0.942-19.481,2.801c-24.952,7.055-38.899,24.142-35.811,35.066c2.355,8.329,14.165,13.924,29.388,13.924
			c6.354,0,12.908-0.942,19.481-2.801c11.788-3.333,22.401-9.434,29.121-16.74c3.391-3.687,8.77-10.97,6.689-18.325
			C268.111,131.275,256.301,125.68,241.078,125.68z"></path>
  </g>
  <g>
    <path d="M344.508,175.5c-0.159,0-0.317-0.005-0.478-0.014c-4.411-0.26-7.776-4.045-7.517-8.456l1.5-25.5
			c0.259-4.412,4.072-7.771,8.456-7.517c4.411,0.26,7.776,4.045,7.517,8.456l-1.5,25.5C352.236,172.22,348.71,175.5,344.508,175.5z"></path>
  </g>
  <g>
    <path d="M338.009,238.001c-0.489,0-0.984-0.045-1.483-0.139l-32-6c-4.343-0.814-7.202-4.995-6.389-9.337
			c0.813-4.343,4.988-7.206,9.338-6.389l32,6c4.343,0.814,7.202,4.995,6.389,9.337C345.143,235.319,341.783,238.001,338.009,238.001
			z"></path>
  </g>
  <g>
    <path d="M399.006,232c-0.117,0-0.234-0.002-0.354-0.007c-4.414-0.192-7.837-3.926-7.645-8.34l1-23
			c0.191-4.414,3.905-7.812,8.34-7.645c4.414,0.192,7.837,3.926,7.645,8.34l-1,23C406.806,228.643,403.264,232,399.006,232z"></path>
  </g>
</svg>
