<svg xmlns="http://www.w3.org/2000/svg" viewBox="0 0 512 512" id="test-tubes">
  <path fill="#fedb41" d="M484.67,109.44a14.079,14.079,0,0,1-9.96,24.04H365.22a14.085,14.085,0,1,1,0-28.17H474.71A14.042,14.042,0,0,1,484.67,109.44Z"></path>
  <path fill="#00acea" d="M471.19,133.48V349.21a51.225,51.225,0,0,1-102.45,0V230.87H388.2v-46H368.74V133.48ZM452,349.21V288H388v61.21a32,32,0,1,0,64,0Z"></path>
  <path fill="#00efd1" d="M452,288v61.21a32,32,0,1,1-64,0V288Z"></path>
  <polygon fill="#fedb41" points="368.74 184.87 388.2 184.87 388.2 230.87 368.74 230.87 334.2 230.87 334.2 219.62 334.2 196.12 334.2 184.87 368.74 184.87"></polygon>
  <polygon fill="#fedb41" points="351.3 413.87 351.3 443.87 160.3 443.87 160.3 413.87 228.8 413.87 282.8 413.87 351.3 413.87"></polygon>
  <polygon fill="#00efd1" points="334.2 196.12 334.2 219.62 283.2 219.62 282.8 219.62 282.8 196.12 283.2 196.12 334.2 196.12"></polygon>
  <polygon fill="#00acea" points="282.8 219.62 282.8 413.87 228.8 413.87 228.8 219.62 228.8 196.12 228.8 68.13 282.8 68.13 282.8 196.12 282.8 219.62"></polygon>
  <rect width="51" height="23.5" x="177.8" y="196.12" fill="#00efd1"></rect>
  <polygon fill="#fedb41" points="143.26 184.87 177.8 184.87 177.8 196.12 177.8 219.62 177.8 230.87 143.26 230.87 123.8 230.87 123.8 184.87 143.26 184.87"></polygon>
  <path fill="#fedb41" d="M146.78,105.31a14.085,14.085,0,0,1,0,28.17H37.29a14.085,14.085,0,0,1,0-28.17Z"></path>
  <path fill="#00acea" d="M143.26,231.12V349.21a51.225,51.225,0,0,1-102.45,0V133.48H143.26v51.39H123.8v46h19.46ZM123,349.21V288H59v61.21a32,32,0,1,0,64,0Z"></path>
  <path fill="#00efd1" d="M123,288v61.21a32,32,0,1,1-64,0V288Z"></path>
  <path fill="#083863" d="M59,280a8,8,0,0,0-8,8v61.21a40,40,0,1,0,80,0V288a8,8,0,0,0-8-8Zm56,69.21a24,24,0,1,1-48,0V296h48Z"></path>
  <path fill="#083863" d="M474.71,97H365.22a22.152,22.152,0,0,0-15.488,37.929A23.267,23.267,0,0,0,361,141.021V177H334.2a8.064,8.064,0,0,0-8.2,7.87V188H291V68.13A8.284,8.284,0,0,0,282.8,60h-54a7.944,7.944,0,0,0-7.8,8.13V188H186v-3.13a8.064,8.064,0,0,0-8.2-7.87H151V141.021a23.117,23.117,0,0,0,11.268-6.015A22.253,22.253,0,0,0,146.78,97H37.29A22.2,22.2,0,0,0,15.3,119.322a22.331,22.331,0,0,0,17.7,21.7V349.21a59,59,0,1,0,118,0V239h26.8a8.284,8.284,0,0,0,8.2-8.13V228h35V406H160.3a8.153,8.153,0,0,0-8.3,7.87v30a8.373,8.373,0,0,0,8.3,8.13h191a7.862,7.862,0,0,0,7.7-8.13v-30a7.639,7.639,0,0,0-7.7-7.87H291V228h35v2.87a8.284,8.284,0,0,0,8.2,8.13H361V349.21a59.181,59.181,0,0,0,59.1,59.22A58.959,58.959,0,0,0,479,349.21V141.023a22.228,22.228,0,0,0,11.28-37.395A21.989,21.989,0,0,0,474.71,97ZM32.987,114.942A6.206,6.206,0,0,1,37.29,113H146.78a6.231,6.231,0,0,1,6.09,6.245,5.672,5.672,0,0,1-1.787,4.131,5.9,5.9,0,0,1-4.3,1.624H37.29a5.955,5.955,0,0,1-6.09-5.918A5.682,5.682,0,0,1,32.987,114.942ZM135,349.21a43.163,43.163,0,0,1-43.1,43.22A42.959,42.959,0,0,1,49,349.21V141h86v36H123.8a7.722,7.722,0,0,0-7.8,7.87v46a7.944,7.944,0,0,0,7.8,8.13H135ZM170,223H132V193h9.308c.626,0,1.277.25,1.952.25s1.326-.25,1.952-.25H170Zm16-11v-8h35v8ZM343,436H168V422H343ZM237,406V76h38V406Zm54-194v-8h35v8Zm51-19h24.788c.626,0,1.277.25,1.952.25s1.326-.25,1.952-.25H380v30H342ZM450.424,379.776a42.475,42.475,0,0,1-30.372,12.654A43.122,43.122,0,0,1,377,349.21V239h11.2a7.944,7.944,0,0,0,7.8-8.13v-46a7.722,7.722,0,0,0-7.8-7.87H377V141h86V349.21A42.823,42.823,0,0,1,450.424,379.776ZM474.71,125H365.22a5.84,5.84,0,0,1-4.3-1.546A6.129,6.129,0,0,1,365.22,113H474.71a6.209,6.209,0,0,1,4.3,1.941,5.686,5.686,0,0,1,1.787,4.141A5.955,5.955,0,0,1,474.71,125Z"></path>
  <path fill="#083863" d="M452,280H388a8,8,0,0,0-8,8v61.21a40,40,0,1,0,80,0V288A8,8,0,0,0,452,280Zm-8,69.21a24,24,0,1,1-48,0V296h48Z"></path>
</svg>
